<svg width="1160" height="331" viewBox="0 0 1160 331" fill="none" xmlns="http://www.w3.org/2000/svg">
<path d="M1004.66 331.008C987.468 331.008 978.871 321.234 978.871 301.687C978.871 293.444 981.227 284.024 985.937 273.426C990.882 263.064 997.594 252.466 1006.07 241.632C1014.79 230.563 1024.68 220.319 1035.75 210.898L1035.39 215.844C1007.37 191.351 986.172 168.742 971.806 148.017C957.44 127.293 950.257 107.274 950.257 87.9626C950.257 74.7741 953.554 64.5295 960.149 57.2287C966.978 49.9279 976.163 46.2775 987.703 46.2775C1004.19 46.2775 1018.91 56.2866 1031.86 76.3049C1045.05 96.0877 1055.53 125.88 1063.3 165.681H1064.71C1070.13 123.524 1078.61 92.4373 1090.15 72.419C1101.69 52.4007 1115.35 42.3916 1131.13 42.3916C1140.55 42.3916 1147.61 45.3355 1152.32 51.2232C1157.27 57.1109 1159.74 65.4715 1159.74 76.3049C1159.74 83.8412 1158.45 93.0261 1155.86 103.859C1153.27 114.693 1149.5 126.704 1144.55 139.892C1139.84 152.845 1134.07 166.505 1127.24 180.871C1120.65 195.002 1113.23 209.25 1104.99 223.616C1083.56 260.826 1065.07 288.028 1049.52 305.22C1033.98 322.412 1019.03 331.008 1004.66 331.008Z" fill="#0EA5A4"/>
<path d="M801.936 247.285C779.798 247.285 762.253 239.159 749.3 222.909C736.347 206.424 729.87 181.342 729.87 147.664C729.87 111.867 735.993 85.7253 748.24 69.2396C760.722 52.5185 778.032 44.1579 800.17 44.1579C813.829 44.1579 825.722 47.1018 835.849 52.9895C846.212 58.8773 855.514 67.2378 863.757 78.0712L858.811 90.7887C858.105 87.4916 857.516 83.959 857.045 80.1908C856.574 76.4227 856.339 73.5966 856.339 71.7125C856.339 60.8791 858.576 52.5185 863.051 46.6308C867.761 40.5075 875.062 37.4459 884.953 37.4459C895.786 37.4459 904.5 41.2141 911.094 48.7504C917.924 56.0511 922.87 66.6491 925.931 80.5441C928.522 91.142 930.642 104.684 932.29 121.169C933.939 137.42 934.763 153.905 934.763 170.626C934.763 193.235 933.939 212.194 932.29 227.502C930.642 242.81 927.933 255.527 924.165 265.654C920.397 275.781 915.451 284.613 909.328 292.149C898.495 304.867 884.129 314.287 866.23 320.41C848.567 326.769 828.313 329.948 805.469 329.948C788.512 329.948 774.97 328.182 764.843 324.649C754.716 321.352 747.298 316.76 742.588 310.872C738.113 305.22 735.876 298.861 735.876 291.796C735.876 282.846 737.995 275.31 742.234 269.187C746.709 263.299 753.303 260.355 762.017 260.355C769.789 260.355 778.267 260.944 787.452 262.122C796.872 263.299 806.999 263.888 817.833 263.888C836.203 263.888 849.156 260.355 856.692 253.29C864.464 246.225 868.35 235.98 868.35 222.556C868.35 217.139 867.996 210.781 867.29 203.48L872.235 201.36C865.877 215.255 856.692 226.442 844.681 234.92C832.67 243.163 818.422 247.285 801.936 247.285ZM831.963 191.822C837.38 191.822 842.561 190.291 847.507 187.23C852.453 184.168 856.339 179.105 859.165 172.039C862.226 164.974 863.757 155.554 863.757 143.778C863.757 129.412 861.049 117.755 855.632 108.805C850.451 99.8558 842.326 95.3812 831.257 95.3812C821.836 95.3812 814.536 99.3848 809.354 107.392C804.173 115.164 801.583 127.175 801.583 143.425C801.583 158.498 804.173 170.391 809.354 179.105C814.771 187.583 822.307 191.822 831.963 191.822Z" fill="#0EA5A4"/>
<path d="M579.076 247.285C556.938 247.285 539.393 239.159 526.44 222.909C513.487 206.424 507.01 181.342 507.01 147.664C507.01 111.867 513.134 85.7253 525.38 69.2396C537.862 52.5185 555.172 44.1579 577.31 44.1579C590.969 44.1579 602.863 47.1018 612.99 52.9895C623.352 58.8773 632.655 67.2378 640.897 78.0712L635.952 90.7887C635.245 87.4916 634.656 83.959 634.185 80.1908C633.714 76.4227 633.479 73.5966 633.479 71.7125C633.479 60.8791 635.716 52.5185 640.191 46.6308C644.901 40.5075 652.202 37.4459 662.093 37.4459C672.927 37.4459 681.64 41.2141 688.235 48.7504C695.065 56.0511 700.01 66.6491 703.072 80.5441C705.662 91.142 707.782 104.684 709.431 121.169C711.079 137.42 711.903 153.905 711.903 170.626C711.903 193.235 711.079 212.194 709.431 227.502C707.782 242.81 705.074 255.527 701.306 265.654C697.537 275.781 692.592 284.613 686.468 292.149C675.635 304.867 661.269 314.287 643.37 320.41C625.707 326.769 605.453 329.948 582.609 329.948C565.652 329.948 552.11 328.182 541.984 324.649C531.857 321.352 524.438 316.76 519.728 310.872C515.253 305.22 513.016 298.861 513.016 291.796C513.016 282.846 515.136 275.31 519.375 269.187C523.849 263.299 530.444 260.355 539.157 260.355C546.929 260.355 555.408 260.944 564.592 262.122C574.013 263.299 584.14 263.888 594.973 263.888C613.343 263.888 626.296 260.355 633.832 253.29C641.604 246.225 645.49 235.98 645.49 222.556C645.49 217.139 645.137 210.781 644.43 203.48L649.376 201.36C643.017 215.255 633.832 226.442 621.821 234.92C609.81 243.163 595.562 247.285 579.076 247.285ZM609.104 191.822C614.52 191.822 619.702 190.291 624.647 187.23C629.593 184.168 633.479 179.105 636.305 172.039C639.367 164.974 640.897 155.554 640.897 143.778C640.897 129.412 638.189 117.755 632.772 108.805C627.591 99.8558 619.466 95.3812 608.397 95.3812C598.977 95.3812 591.676 99.3848 586.495 107.392C581.314 115.164 578.723 127.175 578.723 143.425C578.723 158.498 581.314 170.391 586.495 179.105C591.912 187.583 599.448 191.822 609.104 191.822Z" fill="#0EA5A4"/>
<path d="M451.286 264.241C439.275 264.241 431.268 261.18 427.264 255.057C423.26 248.698 421.259 238.689 421.259 225.029L426.558 226.795C413.84 252.466 389.347 265.301 353.079 265.301C336.593 265.301 322.934 262.357 312.1 256.47C301.267 250.582 293.142 242.928 287.725 233.507C282.544 223.852 279.953 213.254 279.953 201.714C279.953 181.931 287.136 166.27 301.502 154.73C315.868 143.19 334.944 137.42 358.731 137.42C373.568 137.42 386.521 139.657 397.59 144.132C408.894 148.606 418.315 154.847 425.851 162.855L415.96 162.148C415.489 142.365 411.603 128.353 404.302 120.11C397.001 111.631 386.403 107.392 372.508 107.392C366.149 107.392 359.555 108.452 352.725 110.572C345.896 112.456 339.066 114.458 332.236 116.577C325.642 118.697 318.93 119.757 312.1 119.757C303.622 119.757 297.028 117.401 292.317 112.691C287.607 107.981 285.252 101.858 285.252 94.3215C285.252 83.9591 289.727 74.6565 298.676 66.4137C307.625 58.1709 319.401 51.6944 334.002 46.9842C348.84 42.0385 364.854 39.5657 382.046 39.5657C403.949 39.5657 422.907 43.9226 438.922 52.6364C455.172 61.3503 466.83 74.6565 473.895 92.5552C479.312 105.979 483.08 121.17 485.199 138.126C487.554 154.847 488.732 172.746 488.732 191.822C488.732 210.899 487.437 225.736 484.846 236.334C482.491 246.696 478.487 253.997 472.835 258.236C467.418 262.24 460.235 264.241 451.286 264.241ZM379.927 215.844C385.343 215.844 390.878 215.02 396.53 213.371C402.182 211.487 406.893 208.897 410.661 205.6C414.664 202.302 416.666 198.181 416.666 193.235C416.666 188.761 415.135 185.11 412.074 182.284C409.012 179.223 404.891 177.103 399.71 175.925C394.528 174.512 388.994 173.806 383.106 173.806C372.744 173.806 364.619 175.808 358.731 179.811C352.843 183.815 349.899 188.996 349.899 195.355C349.899 201.478 352.608 206.424 358.024 210.192C363.441 213.96 370.742 215.844 379.927 215.844Z" fill="#0EA5A4"/>
<path d="M0 75.9517C0 52.1653 3.53264 35.2086 10.5979 25.0817C17.6632 14.7193 28.6144 9.53812 43.4514 9.53812C53.1073 9.53812 60.5258 12.011 65.707 16.9566C71.1238 21.9023 74.8919 28.4966 77.0115 36.7394C79.1311 44.9822 80.1909 54.1671 80.1909 64.294C80.1909 73.2433 79.8376 83.7235 79.1311 95.7345C78.66 107.745 77.9535 119.992 77.0115 132.474C76.305 144.956 75.3629 156.614 74.1854 167.447H75.5984C81.4862 139.421 87.1384 117.166 92.5551 100.68C98.2073 83.959 103.977 71.948 109.865 64.6473C115.753 57.111 121.994 53.3428 128.588 53.3428C135.889 53.3428 142.483 57.111 148.371 64.6473C154.494 71.948 160.382 83.8412 166.034 100.327C171.922 116.577 178.163 138.008 184.757 164.621H186.17C185.463 153.081 184.757 141.188 184.05 128.941C183.344 116.695 182.755 104.566 182.284 92.5551C182.049 80.3086 181.931 69.0042 181.931 58.6418C181.931 43.0982 183.344 31.0872 186.17 22.6089C189.232 14.1305 193.353 8.24282 198.534 4.94569C203.951 1.64856 210.192 0 217.257 0C231.388 0 242.339 6.24099 250.111 18.723C258.118 31.205 262.122 49.5747 262.122 73.8321C262.122 89.8467 261.415 106.215 260.002 122.936C258.824 139.657 257.058 155.907 254.703 171.686C252.348 187.465 249.404 202.185 245.871 215.844C242.103 230.917 236.687 242.692 229.621 251.17C222.792 259.413 213.96 263.535 203.127 263.535C196.532 263.535 189.938 261.297 183.344 256.823C176.985 252.348 170.626 245.165 164.268 235.274C158.144 225.382 152.257 212.311 146.604 196.061C141.188 179.811 136.124 159.911 131.414 136.36H129.648C124.938 159.675 119.756 179.105 114.104 194.648C108.687 210.192 102.917 222.556 96.7942 231.741C90.671 240.69 84.0768 247.167 77.0115 251.17C69.9462 254.939 62.4099 256.823 54.4026 256.823C43.0982 256.823 34.1488 252.819 27.5546 244.812C20.9603 236.804 15.7791 223.498 12.011 204.893C10.3624 196.179 8.83159 186.288 7.41854 175.219C6.00548 163.914 4.71018 152.257 3.53264 140.246C2.5906 128.235 1.76632 116.695 1.05979 105.626C0.353264 94.3214 0 84.43 0 75.9517Z" fill="#0EA5A4"/>
</svg>
